<svg clip-rule="evenodd" fill-rule="evenodd" stroke-linejoin="round" stroke-miterlimit="2" viewBox="0 0 267 267" xmlns="http://www.w3.org/2000/svg"><path d="m119.457 232.053c-.743-.055-1.458.291-1.877.907-.418.616-.476 1.409-.151 2.079l5.011 10.349c1.983 4.095 6.132 6.695 10.681 6.695s8.698-2.6 10.681-6.695l5.012-10.349c.324-.67.267-1.463-.152-2.079-.418-.616-1.134-.962-1.877-.907-.431.032-.865.048-1.303.048h-24.721c-.438 0-.873-.016-1.304-.048z" fill="#90caf9"/><path d="m167.154 200.264c0-1.151-.933-2.083-2.084-2.083h-63.898c-1.15 0-2.083.932-2.083 2.083v14.332c0 11.961 9.711 21.672 21.672 21.672h24.721c11.961 0 21.672-9.711 21.672-21.672z" fill="#1565c0"/><path d="m106.51 131.763c9.915-1.199 21.884-2.619 23.818-2.733 1.079-.063 1.93-.942 1.96-2.022.029-1.08-.772-2.004-1.846-2.127-13.019-1.491-25.913-3.069-35.767-4.973-3.708-.717-7.026-1.537-9.859-2.421-.389-.122-.804-.126-1.195-.014-3.387.971-6.195 2.066-8.125 3.207-3.994 2.362-5.823 5.483-6.399 8.227-.71 3.376-.206 7.507 4.359 11.378 3.1 2.628 10.425 5.381 20.428 7.314 2.829.547 5.905 1.067 9.163 1.567 4.368 10.995 5.326 20.49 5.247 27.022v-.001c-.043.912-.795 1.631-1.71 1.631-.002 0-.003 0-.005 0-4.31.01-10.921.01-10.921.01-3.958 0-7.172 3.214-7.172 7.172v10.176c0 3.958 3.214 7.171 7.172 7.171h74.927c3.958 0 7.171-3.213 7.171-7.171v-10.176c0-3.958-3.213-7.172-7.171-7.172h-9.659c-.457 0-.895-.181-1.218-.504s-.505-.761-.505-1.218v-20.059c1.241.162 2.456.324 3.642.488 6.418.888 11.95 1.801 15.929 2.832 1.078.279 2.288.714 2.967.969 2.985 2.787 7.616 3.222 11.107.797 4.02-2.791 5.018-8.321 2.227-12.341-1.179-1.698-3.614-3.836-7.732-5.337-4.515-1.645-12.416-3.153-22.069-4.487-17.328-2.396-40.796-4.473-58.764-7.205z" fill="#0288d1"/><path d="m106.211 108.116c8.795-1.106 19.241-2.374 22.472-2.584 1.042-.068 1.873-.896 1.944-1.938.07-1.042-.641-1.975-1.665-2.183-.313-.063-.628-.128-.943-.193-5.642-1.257-11.057-2.579-16.081-4.108-5.739-1.747-10.998-3.656-15.617-5.623-.366-.155-.768-.203-1.16-.137-.458.076-.913.154-1.364.234-7.856 1.383-14.671 3.35-18.301 5.496-3.994 2.361-5.823 5.482-6.399 8.227-.71 3.376-.206 7.506 4.359 11.377 3.1 2.629 10.425 5.382 20.428 7.315 18.667 3.607 48.172 6.061 68.961 8.936 6.418.887 11.95 1.801 15.929 2.832 1.078.279 2.288.713 2.967.969 2.985 2.786 7.616 3.221 11.107.797 4.02-2.791 5.018-8.321 2.227-12.341-1.179-1.698-3.614-3.837-7.732-5.337-4.515-1.646-12.416-3.153-22.069-4.488-17.424-2.409-41.057-4.495-59.063-7.251z" fill="#1976d2"/><path d="m62.278 148.056c-.723-1.145-1.419-2.308-2.087-3.489-.567-1.001-1.839-1.354-2.84-.788-1 .567-1.353 1.839-.787 2.84.701 1.239 1.432 2.46 2.19 3.661.614.973 1.902 1.264 2.874.65s1.263-1.901.65-2.874zm145.851-5.267c-.959 1.795-1.982 3.552-3.065 5.267-.613.973-.322 2.26.65 2.874s2.26.323 2.874-.65c1.136-1.8 2.209-3.643 3.216-5.528.542-1.014.159-2.277-.855-2.819s-2.278-.159-2.82.856zm-151.595-5.482c-1.096-2.466-2.077-4.995-2.937-7.579-.363-1.091-1.543-1.682-2.634-1.319s-1.682 1.543-1.319 2.634c.902 2.713 1.932 5.367 3.082 7.956.467 1.051 1.699 1.525 2.75 1.058s1.525-1.699 1.058-2.75zm157.828-10.019c-.797 2.605-1.717 5.156-2.753 7.648-.441 1.061.063 2.282 1.124 2.723 1.062.442 2.283-.062 2.724-1.124 1.087-2.615 2.053-5.293 2.889-8.028.336-1.1-.283-2.265-1.383-2.602-1.099-.336-2.265.284-2.601 1.383zm-162.952-5.895c-.598-2.623-1.073-5.293-1.419-8.003-.146-1.141-1.19-1.948-2.331-1.803-1.141.146-1.948 1.19-1.802 2.331.363 2.844.862 5.647 1.489 8.401.255 1.121 1.373 1.824 2.494 1.568 1.121-.255 1.824-1.372 1.569-2.494zm166.174-10.019c-.281 2.719-.691 5.399-1.225 8.036-.228 1.127.502 2.227 1.629 2.455s2.227-.502 2.455-1.629c.56-2.767.991-5.58 1.286-8.434.118-1.143-.714-2.168-1.858-2.286-1.144-.119-2.168.714-2.287 1.858zm-168.235-6.089c-.028-.889-.042-1.782-.042-2.678 0-1.832.058-3.65.174-5.453.073-1.148-.799-2.139-1.947-2.212-1.147-.074-2.138.798-2.212 1.946-.12 1.891-.182 3.798-.182 5.719 0 .939.015 1.875.044 2.808.036 1.149.998 2.053 2.147 2.017 1.15-.036 2.053-.998 2.018-2.147zm168.359-10.155c.216 2.463.327 4.957.327 7.477 0 .216-.001.432-.002.648-.009 1.15.917 2.09 2.067 2.099 1.15.008 2.09-.918 2.099-2.068.002-.226.003-.452.003-.679 0-2.643-.116-5.258-.344-7.843-.101-1.145-1.112-1.993-2.258-1.892-1.145.1-1.993 1.112-1.892 2.258zm-167.32-6.055c.435-2.696.999-5.348 1.683-7.952.293-1.112-.373-2.252-1.485-2.545-1.112-.292-2.252.373-2.544 1.485-.719 2.734-1.31 5.518-1.767 8.348-.184 1.135.589 2.205 1.724 2.388 1.135.184 2.206-.589 2.389-1.724zm164.343-9.908c.748 2.587 1.375 5.226 1.875 7.909.211 1.13 1.299 1.877 2.43 1.666 1.13-.211 1.877-1.3 1.666-2.43-.525-2.816-1.183-5.586-1.968-8.302-.32-1.105-1.476-1.742-2.58-1.423-1.105.319-1.742 1.475-1.423 2.58zm-160.213-5.795c.944-2.553 2.008-5.047 3.186-7.477.501-1.035.069-2.282-.966-2.784-1.035-.501-2.282-.068-2.784.967-1.236 2.55-2.353 5.169-3.344 7.848-.399 1.079.152 2.278 1.231 2.677 1.078.399 2.278-.152 2.677-1.231zm154.213-9.293c1.236 2.402 2.361 4.87 3.366 7.399.425 1.068 1.638 1.591 2.706 1.166s1.591-1.638 1.166-2.706c-1.056-2.654-2.236-5.245-3.534-7.766-.526-1.022-1.783-1.425-2.805-.899-1.023.527-1.425 1.784-.899 2.806zm-147.133-5.32c1.415-2.318 2.939-4.564 4.564-6.728.69-.92.504-2.227-.416-2.917-.919-.691-2.226-.504-2.917.415-1.705 2.271-3.303 4.627-4.788 7.06-.598.982-.288 2.265.694 2.864.981.598 2.265.288 2.863-.694zm138.344-8.337c1.677 2.126 3.254 4.334 4.724 6.617.622.967 1.912 1.247 2.879.625s1.247-1.913.624-2.88c-1.542-2.395-3.196-4.712-4.955-6.942-.712-.903-2.023-1.058-2.926-.346s-1.058 2.023-.346 2.926zm-128.593-4.652c1.828-2.003 3.751-3.918 5.762-5.737.852-.771.918-2.09.147-2.943-.771-.852-2.09-.918-2.942-.147-2.11 1.908-4.127 3.917-6.045 6.018-.775.849-.715 2.168.134 2.943.85.775 2.169.715 2.944-.134zm117.361-7.081c2.054 1.771 4.022 3.64 5.897 5.598.795.83 2.115.859 2.946.064.83-.795.859-2.115.064-2.946-1.967-2.054-4.032-4.014-6.187-5.872-.871-.75-2.187-.653-2.938.218s-.653 2.188.218 2.938zm-105.315-3.816c2.171-1.615 4.423-3.128 6.748-4.533.984-.594 1.301-1.876.706-2.86-.594-.984-1.876-1.301-2.86-.706-2.44 1.473-4.803 3.061-7.081 4.756-.923.686-1.115 1.993-.428 2.915.686.923 1.992 1.115 2.915.428zm92.054-5.561c2.359 1.348 4.646 2.807 6.855 4.37.939.664 2.24.44 2.904-.498.664-.939.441-2.24-.498-2.904-2.318-1.64-4.718-3.171-7.193-4.585-.998-.571-2.272-.224-2.843.774-.57.998-.223 2.272.775 2.843zm-78.153-2.834c2.435-1.167 4.934-2.22 7.492-3.153 1.08-.395 1.637-1.591 1.243-2.672-.394-1.08-1.591-1.637-2.672-1.243-2.684.98-5.308 2.085-7.864 3.31-1.036.497-1.475 1.742-.978 2.779s1.742 1.475 2.779.979zm63.344-3.826c2.58.871 5.104 1.864 7.565 2.971 1.049.472 2.283.003 2.755-1.046.472-1.048.003-2.282-1.045-2.754-2.584-1.162-5.234-2.204-7.942-3.118-1.09-.368-2.273.218-2.641 1.307-.367 1.089.218 2.272 1.308 2.64zm-48.091-1.739c2.607-.673 5.262-1.224 7.959-1.648 1.136-.178 1.914-1.245 1.736-2.381-.179-1.136-1.246-1.913-2.381-1.735-2.832.444-5.619 1.023-8.355 1.73-1.114.287-1.784 1.424-1.497 2.538.288 1.113 1.425 1.783 2.538 1.496zm32.276-1.938c2.708.358 5.376.845 7.997 1.455 1.12.26 2.241-.438 2.501-1.558s-.438-2.24-1.557-2.501c-2.752-.639-5.552-1.151-8.395-1.527-1.139-.15-2.187.653-2.338 1.792-.151 1.14.652 2.188 1.792 2.339zm-16.234-.581c1.681-.1 3.375-.151 5.08-.151 1.022 0 2.039.018 3.052.054 1.149.041 2.115-.858 2.156-2.008.041-1.149-.859-2.115-2.008-2.156-1.062-.038-2.129-.057-3.2-.057-1.789 0-3.565.054-5.327.158-1.148.069-2.024 1.056-1.956 2.204s1.056 2.024 2.203 1.956z" fill="#ffc107"/><path d="m87.279 54.809c-2.718.041-5.022.408-6.974.88-2.19.529-3.885 1.364-5.214 2.159-.007.004-.014.008-.021.013-1.436.882-2.537 1.955-3.495 3.044-1.145 1.304-1.894 2.766-2.496 4.241-1.145 2.806-1.33 6.2-.259 9.904.708 2.453 2.221 4.971 4.624 7.581.011.011.021.022.032.033 3.409 3.543 10.804 8.22 21.161 12.635 4.755 2.027 10.173 3.997 16.088 5.797 5.125 1.56 10.648 2.91 16.404 4.193.011.002.021.005.032.007 11.273 2.325 21.954 3.89 31.099 4.609 9.027.709 16.605.634 21.896-.107.002-.001.004-.001.006-.001 2.884-.413 5.335-1.034 7.34-1.796 2.259-.859 4.048-1.848 5.358-2.868 1.422-1.107 2.579-2.29 3.469-3.559 1.05-1.497 1.816-3.056 2.274-4.669.845-2.969.987-6.474-.498-10.111-.949-2.325-2.504-4.789-5.118-7.102-.001 0-.001-.001-.002-.001-3.612-3.19-11.204-7.175-21.626-10.799-8.971-3.119-20.1-6.136-32.377-8.504-2.562-.559-5.104 1.054-5.686 3.615-.583 2.567 1.02 5.123 3.579 5.72 11.523 3.023 21.927 6.593 30.275 10.117 8.112 3.424 14.129 6.678 16.843 9.401l.002.002c.764.765 1.237 1.532 1.487 2.269.154.453.076.877-.047 1.232-.061.174-.189.319-.314.477-.155.196-.384.338-.623.503-.543.374-1.357.611-2.346.872-1.051.278-2.274.457-3.653.574-.003 0-.005 0-.007.001-4.535.397-10.979-.001-18.636-.957-8.526-1.066-18.467-2.888-28.93-5.487-.011-.002-.022-.005-.033-.007-5.38-1.246-10.505-2.681-15.331-4.054-5.477-1.559-10.54-3.119-15.043-4.667-8.175-2.811-14.416-5.246-17.289-7.695-.012-.01-.023-.02-.035-.029-.819-.668-1.507-1.224-1.827-1.914-.249-.537-.52-1.009-.416-1.463.062-.273.066-.575.228-.834.191-.305.376-.646.693-.921.007-.006.014-.012.021-.018.606-.54 1.456-1.116 2.623-1.589 1.096-.445 2.343-.886 3.804-1.213 2.593-.361 4.422-2.702 4.128-5.288-.294-2.582-2.596-4.452-5.17-4.226z" fill="#ffb300"/></svg>