<svg clip-rule="evenodd" fill-rule="evenodd" stroke-linejoin="round" stroke-miterlimit="2" viewBox="0 0 267 267" xmlns="http://www.w3.org/2000/svg">
  <path d="m119.457 232.053c-.743-.055-1.458.291-1.877.907-.418.616-.476 1.409-.151 2.079l5.011 10.349c1.983 4.095 6.132 6.695 10.681 6.695s8.698-2.6 10.681-6.695l5.012-10.349c.324-.67.267-1.463-.152-2.079-.418-.616-1.134-.962-1.877-.907-.431.032-.865.048-1.303.048h-24.721c-.438 0-.873-.016-1.304-.048z" fill="rgba(255, 255, 255, 0.8)"/>
  <path d="m167.154 200.264c0-1.151-.933-2.083-2.084-2.083h-63.898c-1.15 0-2.083.932-2.083 2.083v14.332c0 11.961 9.711 21.672 21.672 21.672h24.721c11.961 0 21.672-9.711 21.672-21.672z" fill="rgba(255, 255, 255, 0.8)"/>
  <path d="m106.51 131.763c9.915-1.199 21.884-2.619 23.818-2.733 1.079-.063 1.93-.942 1.96-2.022.029-1.08-.772-2.004-1.846-2.127-13.019-1.491-25.913-3.069-35.767-4.973-3.708-.717-7.026-1.537-9.859-2.421-.389-.122-.804-.126-1.195-.014-3.387.971-6.195 2.066-8.125 3.207-3.994 2.362-5.823 5.483-6.399 8.227-.71 3.376-.206 7.507 4.359 11.378 3.1 2.628 10.425 5.381 20.428 7.314 2.829.547 5.905 1.067 9.163 1.567 4.368 10.995 5.326 20.49 5.247 27.022v-.001c-.043.912-.795 1.631-1.71 1.631-.002 0-.003 0-.005 0-4.31.01-10.921.01-10.921.01-3.958 0-7.172 3.214-7.172 7.172v10.176c0 3.958 3.214 7.171 7.172 7.171h74.927c3.958 0 7.171-3.213 7.171-7.171v-10.176c0-3.958-3.213-7.172-7.171-7.172h-9.659c-.457 0-.895-.181-1.218-.504s-.505-.761-.505-1.218v-20.059c1.241.162 2.456.324 3.642.488 6.418.888 11.95 1.801 15.929 2.832 1.078.279 2.288.714 2.967.969 2.985 2.787 7.616 3.222 11.107.797 4.02-2.791 5.018-8.321 2.227-12.341-1.179-1.698-3.614-3.836-7.732-5.337-4.515-1.645-12.416-3.153-22.069-4.487-17.328-2.396-40.796-4.473-58.764-7.205z" fill="rgba(255, 255, 255, 0.8)"/>
  <path d="m106.211 108.116c8.795-1.106 19.241-2.374 22.472-2.584 1.042-.068 1.873-.896 1.944-1.938.07-1.042-.641-1.975-1.665-2.183-.313-.063-.628-.128-.943-.193-5.642-1.257-11.057-2.579-16.081-4.108-5.739-1.747-10.998-3.656-15.617-5.623-.366-.155-.768-.203-1.16-.137-.458.076-.913.154-1.364.234-7.856 1.383-14.671 3.35-18.301 5.496-3.994 2.361-5.823 5.482-6.399 8.227-.71 3.376-.206 7.506 4.359 11.377 3.1 2.629 10.425 5.382 20.428 7.315 18.667 3.607 48.172 6.061 68.961 8.936 6.418.887 11.95 1.801 15.929 2.832 1.078.279 2.288.713 2.967.969 2.985 2.786 7.616 3.221 11.107.797 4.02-2.791 5.018-8.321 2.227-12.341-1.179-1.698-3.614-3.837-7.732-5.337-4.515-1.646-12.416-3.153-22.069-4.488-17.424-2.409-41.057-4.495-59.063-7.251z" fill="rgba(255, 255, 255, 0.8)"/>
</svg>
